<svg height="512" viewBox="0 0 60 60" width="512" xmlns="http://www.w3.org/2000/svg"><g id="Page-1" fill="none" fill-rule="evenodd"><g id="030---Money" fill-rule="nonzero"><path id="Shape" d="m59 25.88c.0017528.7274485-.2735686 1.4282667-.77 1.96-1.2047696 1.1921445-2.7012694 2.0472873-4.34 2.48-2.6235478.77405-5.3108354 1.3128462-8.03 1.61-3.8270076.5271206-7.6789088.8542318-11.54.98h-.01c-.8657845-.3992614-1.7856565-.668821-2.73-.8-1.0482258-.1466962-2.1117742-.1466962-3.16 0-.9443435.131179-1.8642155.4007386-2.73.8h-.01c-3.8610912-.1257682-7.7129924-.4528794-11.54-.98-2.7191646-.2971538-5.40645221-.83595-8.03-1.61-1.63873055-.4327127-3.13523045-1.2878555-4.34-2.48-.49643139-.5317333-.77175283-1.2325515-.77-1.96.07639561-1.0247204.40628426-2.0143863.96-2.88l10.04-19c.8618349-1.79088785 2.6531818-2.94908627 4.64-3h26.72c1.9868182.05091373 3.7781651 1.20911215 4.64 3l10.04 19c.5537157.8656137.8836044 1.8552796.96 2.88z" fill="#ff9801"/><path id="Shape" d="m58.04 23-10.04-19c-.8618349-1.79088785-2.6531818-2.94908627-4.64-3h-3c1.9868182.05091373 3.7781651 1.20911215 4.64 3l10.04 19c.5537157.8656137.8836044 1.8552796.96 2.88.0017528.7274485-.2735686 1.4282667-.77 1.96-1.2047696 1.1921445-2.7012694 2.0472873-4.34 2.48-2.6235478.77405-5.3108354 1.3128462-8.03 1.61-2.936.384-5.89.694-8.857.864.1.043.209.07.307.116h.01c3.8610912-.1257682 7.7129924-.4528794 11.54-.98 2.7191646-.2971538 5.4064522-.83595 8.03-1.61 1.6387306-.4327127 3.1352304-1.2878555 4.34-2.48.4964314-.5317333.7717528-1.2325515.77-1.96-.0763956-1.0247204-.4062843-2.0143863-.96-2.88z" fill="#f57c00"/><path id="Shape" d="m27 32c-.5285284.0014468-1.0563699.0381953-1.58.11-.8327529.1228508-1.6461492.3527529-2.42.684.894.051 1.788.093 2.683.116h.01c.8657845-.3992614 1.7856565-.668821 2.73-.8.026 0 .053-.005.08-.008-.4982887-.0662518-1.000329-.1003224-1.503-.102z" fill="#f57c00"/><path id="Shape" d="m54 32v-23c0-.55228475-.4477153-1-1-1h-46c-.55228475 0-1 .44771525-1 1v23z" fill="#60a917"/><path id="Shape" d="m53 8h-3c.5522847 0 1 .44771525 1 1v23h3v-23c0-.55228475-.4477153-1-1-1z" fill="#549414"/><ellipse id="Oval" cx="30" cy="22" fill="#549414" rx="13" ry="14"/><path id="Shape" d="m56.45 57.9c-1.0050624.7216345-2.2127199 1.1066847-3.45 1.1h-46c-1.23728011.0066847-2.44493759-.3783655-3.45-1.1 3.77607218-2.9609895 7.1956288-6.3503439 10.19-10.1 2.4805684-3.2541809 4.7646322-6.6535624 6.84-10.18 1.1905727-2.0448173 2.9671223-3.685513 5.1-4.71h.01c.8657845-.3992614 1.7856565-.668821 2.73-.8 1.0482258-.1466962 2.1117742-.1466962 3.16 0 .9443435.131179 1.8642155.4007386 2.73.8h.01c2.1328777 1.024487 3.9094273 2.6651827 5.1 4.71 2.0753678 3.5264376 4.3594316 6.9258191 6.84 10.18 2.9917203 3.7520365 6.411571 7.1416825 10.19 10.1z" fill="#ffdc00"/><path id="Shape" d="m46.26 47.8c-2.4805684-3.2541809-4.7646322-6.6535624-6.84-10.18-1.1905727-2.0448173-2.9671223-3.685513-5.1-4.71h-.01c-.8657845-.3992614-1.7856565-.668821-2.73-.8-.5236301-.0718047-1.0514716-.1085532-1.58-.11-.5016267.0011432-1.0026607.0345455-1.5.1.027 0 .054 0 .08.008.9443435.131179 1.8642155.4007386 2.73.8h.01c2.1328777 1.024487 3.9094273 2.6651827 5.1 4.71 2.0752999 3.5271213 4.3593648 6.9271723 6.84 10.182 2.9917203 3.7520365 6.411571 7.1416825 10.19 10.1-1.0050624.7216345-2.2127199 1.1066847-3.45 1.1h3c1.2372801.0066847 2.4449376-.3783655 3.45-1.1-3.778429-2.9583175-7.1982797-6.3479635-10.19-10.1z" fill="#fec108"/><path id="Shape" d="m25.68 32.91c-2.1328777 1.024487-3.9094273 2.6651827-5.1 4.71-2.0753678 3.5264376-4.3594316 6.9258191-6.84 10.18-2.9943712 3.7496561-6.41392782 7.1390105-10.19 10.1-1.59955948-1.1185755-2.5516743-2.9481294-2.55-4.9l-.00000832-27.12c-.00174451.7274485.27357693 1.4282667.77000832 1.96 1.20476955 1.1921445 2.70126945 2.0472873 4.34 2.48 2.62354779.77405 5.3108354 1.3128462 8.03 1.61 3.8270076.5271206 7.6789088.8542318 11.54.98z" fill="#fec108"/><path id="Shape" d="m59.0000083 25.88-.0000083 27.12c.0016743 1.9518706-.9504405 3.7814245-2.55 4.9-3.778429-2.9583175-7.1982797-6.3479635-10.19-10.1-2.4805684-3.2541809-4.7646322-6.6535624-6.84-10.18-1.1905727-2.0448173-2.9671223-3.685513-5.1-4.71 3.8610912-.1257682 7.7129924-.4528794 11.54-.98 2.7191646-.2971538 5.4064522-.83595 8.03-1.61 1.6387306-.4327127 3.1352304-1.2878555 4.34-2.48.4964314-.5317333.7717528-1.2325515.7700083-1.96z" fill="#fec108"/><path id="Shape" d="m31 20.091v-4.937c1.1128409.2524624 1.9267959 1.2072317 2 2.346 0 .5522847.4477153 1 1 1s1-.4477153 1-1c-.0965423-2.2415987-1.7783513-4.0953727-4-4.409v-.091c0-.5522847-.4477153-1-1-1s-1 .4477153-1 1v.091c-2.2216487.3136273-3.9034577 2.1674013-4 4.409.0965423 2.2415987 1.7783513 4.0953727 4 4.409v4.937c-1.1128409-.2524624-1.9267959-1.2072317-2-2.346 0-.5522847-.4477153-1-1-1s-1 .4477153-1 1c.1479381 2.6186319 2.3803062 4.6277633 5 4.5 2.6196938.1277633 4.8520619-1.8813681 5-4.5-.0965423-2.2415987-1.7783513-4.0953727-4-4.409zm-4-2.591c.0732041-1.1387683.8871591-2.0935376 2-2.346v4.692c-1.1128409-.2524624-1.9267959-1.2072317-2-2.346zm4 9.346v-4.692c1.1128409.2524624 1.9267959 1.2072317 2 2.346-.0732041 1.1387683-.8871591 2.0935376-2 2.346z" fill="#f5f5f5"/><path id="Shape" d="m10 17c-.55228475 0-1-.4477153-1-1v-4c0-.5522847.44771525-1 1-1h4c.5522847 0 1 .4477153 1 1s-.4477153 1-1 1h-3v3c0 .5522847-.4477153 1-1 1z" fill="#f5f5f5"/><path id="Shape" d="m50 17c-.5522847 0-1-.4477153-1-1v-3h-3c-.5522847 0-1-.4477153-1-1s.4477153-1 1-1h4c.5522847 0 1 .4477153 1 1v4c0 .5522847-.4477153 1-1 1z" fill="#f5f5f5"/><g fill="#000"><path id="Shape" d="m12.889 4.459c.69208-1.45801481 2.1409028-2.40704392 3.754-2.459h26.714c1.6130972.05195608 3.06192 1.00098519 3.754 2.459.1639849.31760911.4849557.52360712.8420057.54039658s.6959349-.15818035.889-.459c.1930651-.30081964.2109792-.68178747.0469943-.99939658-1.0341531-2.12425821-3.1699078-3.491342-5.532-3.541h-26.714c-2.3620922.049658-4.4978469 1.41674179-5.532 3.541-.1639849.31760911-.1460708.69857694.0469943.99939658.1930651.30081965.53195.47578946.889.459s.6780208-.22278747.8420057-.54039658z"/><path id="Shape" d="m58.912 22.513c-.2689627-.4826968-.8783031-.6559626-1.361-.387-.4826968.2689627-.6559626.8783031-.387 1.361 1.012 1.816 1.1 2.817.317 3.692-1.084262 1.0601311-2.4298388 1.8143441-3.9 2.186-2.5632137.7617102-5.1903534 1.2888787-7.849 1.575-3.7352583.5172657-7.4951011.8380406-11.264.961-.8807538-.3793994-1.8072373-.6422841-2.756-.782-1.1398151-.1589998-2.2961849-.1589998-3.436 0-.9463743.1397885-1.8704918.4023333-2.749.781-3.7675432-.1234253-7.5260301-.4441985-11.26-.961-2.6589888-.2860288-5.28646883-.8131983-7.85-1.575-1.47031956-.3718076-2.81593964-1.12639-3.9-2.187-.781-.874-.695-1.875.317-3.691.17398834-.3122501.16817674-.6936028-.01524563-1.0004062s-.51658929-.4924467-.874-.487-.68476603.2011561-.85875437.5134062c-.66435257 1.0460461-1.03911509 2.2497033-1.086 3.488v27c.00440864 3.8641657 3.13583434 6.9955914 7 7h46c3.8641657-.0044086 6.9955914-3.1358343 7-7v-27c-.0476611-1.2381406-.4231112-2.4414443-1.088-3.487zm-56.912 30.487v-23.594c1.15142797.8355109 2.43875331 1.4654715 3.805 1.862 2.67704513.8009708 5.4218537 1.3549535 8.2 1.655 3.15.414 5.926.689 8.53.846-1.0985101.9585064-2.0446847 2.0786747-2.806 3.322l-.673 1.085c-1.8493472 3.1206683-3.886427 6.1261958-6.1 9-2.7844931 3.4733022-5.93873091 6.6332403-9.407 9.424-.98705154-.9375827-1.54686343-2.2386303-1.549-3.6zm5 5c-.56037293-.0062923-1.11560494-.1077355-1.642-.3 3.36318839-2.770867 6.4335609-5.879104 9.163-9.276 2.2612762-2.9371019 4.3437086-6.0076545 6.236-9.195l.673-1.082c1.4736159-2.6866385 4.0997626-4.5473941 7.123-5.047.9571025-.1325019 1.9278975-.1325019 2.885 0 3.0270883.4977584 5.6572957 2.359516 7.133 5.049l.672 1.081c1.8926389 3.1891893 3.975748 6.2614245 6.238 9.2 2.7262424 3.3966113 5.7954749 6.5030405 9.159 9.27-.5257221.192192-1.0802849.2936364-1.64.3zm49.45-1.4c-3.4720931-2.7893671-6.6276421-5.9512875-9.41-9.429-2.2137007-2.8737119-4.2507858-5.8792473-6.1-9l-.672-1.084c-.7613852-1.2438597-1.7079225-2.3643953-2.807-3.323 2.6-.157 5.38-.432 8.531-.846 2.7781403-.3000854 5.5229453-.8540673 8.2-1.655 1.3669614-.3946738 2.6553062-1.0229449 3.808-1.857v23.594c-.0025142 1.3614944-.562678 2.6625201-1.55 3.6z"/><path id="Shape" d="m54 26c.5522847 0 1-.4477153 1-1v-16c0-1.1045695-.8954305-2-2-2h-46c-1.1045695 0-2 .8954305-2 2v16c0 .5522847.44771525 1 1 1s1-.4477153 1-1v-16h16.045c-4.4379108 2.8239389-7.1020984 7.7401119-7.045 13-.0076106 2.2063097.4510752 4.389327 1.346 6.406.2242276.5047883.8152117.7322276 1.32.508s.7322276-.8152117.508-1.32c-.7811551-1.7611047-1.1812329-3.6674381-1.174-5.594 0-7.168 5.383-13 12-13s12 5.832 12 13c.0072329 1.9265619-.3928449 3.8328953-1.174 5.594-.1077098.242404-.1146977.5176707-.0194258.7652275s.2849968.4471189.5274258.5547725c.242404.1077098.5176707.1146977.7652275.0194258s.4471189-.2849968.5547725-.5274258c.8949248-2.016673 1.3536106-4.1996903 1.346-6.406.0570984-5.2598881-2.6070892-10.1760611-7.045-13h16.045v16c0 .5522847.4477153 1 1 1z"/><path id="Shape" d="m6 50c.55228475 0 1-.4477153 1-1v-14c0-.5522847-.44771525-1-1-1s-1 .4477153-1 1v14c0 .5522847.44771525 1 1 1z"/><path id="Shape" d="m54 34c-.5522847 0-1 .4477153-1 1v14c0 .5522847.4477153 1 1 1s1-.4477153 1-1v-14c0-.5522847-.4477153-1-1-1z"/><path id="Shape" d="m41 53h-22c-.5522847 0-1 .4477153-1 1s.4477153 1 1 1h22c.5522847 0 1-.4477153 1-1s-.4477153-1-1-1z"/></g></g></g></svg>