<svg id="Capa_1" enable-background="new 0 0 512 512" height="512" viewBox="0 0 512 512" width="512" xmlns="http://www.w3.org/2000/svg"><g><g><path d="m286 452h-30c-8.291 0-15-6.709-15-15s6.709-15 15-15h30c8.291 0 15 6.709 15 15s-6.709 15-15 15z" fill="#32393f"/></g><path d="m256 241c-8.291 0-15 6.709-15 15v196c0 16.538-13.462 30-30 30s-30-13.462-30-30v-15c0-8.291-6.709-15-15-15s-15 6.709-15 15v15c0 33.091 26.909 60 60 60 18.007 0 33.995-8.134 45-20.729 9.219-10.552 15-24.186 15-39.271v-196c0-8.291-6.709-15-15-15z" fill="#575f64"/><path d="m271 256c0-8.291-6.709-15-15-15v250.271c9.219-10.552 15-24.186 15-39.271z" fill="#474f54"/><path d="m256 0c-8.291 0-15 6.709-15 15v30c0 8.291 6.709 15 15 15s15-6.709 15-15v-30c0-8.291-6.709-15-15-15z" fill="#575f64"/><path d="m271 45v-30c0-8.291-6.709-15-15-15v60c8.291 0 15-6.709 15-15z" fill="#474f54"/><path d="m256 30 120 240.993c3.831 0 7.661-1.458 10.591-4.373 7.178-7.119 30.058-25.62 49.409-25.62s43.231 18.501 50.409 25.62c4.243 4.221 10.638 5.561 16.348 3.223 5.596-2.329 9.243-7.793 9.243-13.843 0-124.072-115.39-226-256-226z" fill="#cc3d3d"/><path d="m0 256c0 6.05 3.647 11.514 9.243 13.843 5.596 2.3 12.056 1.069 16.348-3.223 7.178-7.119 31.058-25.62 50.409-25.62s42.231 18.501 49.409 25.62c2.93 2.915 6.76 4.373 10.591 4.373l120-240.993c-140.61 0-256 101.928-256 226z" fill="#e6455f"/><path d="m256 30c-66.273 0-119.996 108.446-120 240.993 3.831 0 7.661-1.458 10.591-4.373 7.178-7.119 30.058-25.62 49.409-25.62s42.231 18.501 49.409 25.62c2.93 2.915 6.76 4.373 10.591 4.373s7.661-1.458 10.591-4.373c7.178-7.119 30.058-25.62 49.409-25.62s42.231 18.501 49.409 25.62c2.93 2.915 6.76 4.373 10.591 4.373-.004-132.547-53.727-240.993-120-240.993z" fill="#f69"/><path d="m316 241c19.351 0 42.231 18.501 49.409 25.62 2.93 2.915 6.76 4.373 10.591 4.373-.004-132.547-53.727-240.993-120-240.993v240.993c3.831 0 7.661-1.458 10.591-4.373 7.178-7.119 30.058-25.62 49.409-25.62z" fill="#e6455f"/><path d="m286 121h-15v-15c0-8.291-6.709-15-15-15s-15 6.709-15 15v15h-15c-8.291 0-15 6.709-15 15s6.709 15 15 15h15v15c0 8.291 6.709 15 15 15s15-6.709 15-15v-15h15c8.291 0 15-6.709 15-15s-6.709-15-15-15z" fill="#edf5ff"/><path d="m271 166v-15h15c8.291 0 15-6.709 15-15s-6.709-15-15-15h-15v-15c0-8.291-6.709-15-15-15v90c8.291 0 15-6.709 15-15z" fill="#d5e8fe"/></g></svg>