<svg id="Layer_3" enable-background="new 0 0 64 64" height="512" viewBox="0 0 64 64" width="512" xmlns="http://www.w3.org/2000/svg"><g><path d="m10 8h36v-2c0-2.209 1.791-4 4-4 2.209 0 4 1.791 4 4v50h-36v2c0 2.209-1.791 4-4 4-2.209 0-4-1.791-4-4z" fill="#c7e2fc"/><path d="m50 2c-2.209 0-4 1.791-4 4v2h-23.641c-2.767 4.119-4.359 8.898-4.359 14 0 15.464 14.551 28 32.5 28 1.183 0 2.35-.058 3.5-.164v-43.836c0-2.209-1.791-4-4-4z" fill="#ebf7fe"/><circle cx="22" cy="20" fill="#f5b953" r="8"/><path d="m50 2h-44c-2.209 0-4 1.791-4 4v2h44v-2c0-2.209 1.791-4 4-4z" fill="#a1cdfb"/><path d="m14 62h44c2.209 0 4-1.791 4-4v-2h-44v2c0 2.209-1.791 4-4 4z" fill="#a1cdfb"/><g><path d="m22 25c-.264 0-.519-.104-.707-.293l-4-4 1.414-1.414 3.104 3.104 7.337-11.922 1.703 1.049-8 13c-.16.261-.431.433-.735.469-.038.005-.077.007-.116.007z" fill="#8892a0"/></g><g><path d="m13 31h2v2h-2z" fill="#8892a0"/></g><g><path d="m17 31h34v2h-34z" fill="#8892a0"/></g><g><path d="m49 35h2v2h-2z" fill="#8892a0"/></g><g><path d="m13 35h34v2h-34z" fill="#8892a0"/></g><g><path d="m13 39h2v2h-2z" fill="#8892a0"/></g><g><path d="m17 39h34v2h-34z" fill="#8892a0"/></g><g><path d="m49 43h2v2h-2z" fill="#8892a0"/></g><g><path d="m13 43h34v2h-34z" fill="#8892a0"/></g><g><path d="m13 47h2v2h-2z" fill="#8892a0"/></g><g><path d="m17 47h34v2h-34z" fill="#8892a0"/></g><g><path d="m49 51h2v2h-2z" fill="#8892a0"/></g><g><path d="m13 51h34v2h-34z" fill="#8892a0"/></g></g></svg>