<svg id="Capa_1" enable-background="new 0 0 483.254 483.254" height="512" viewBox="0 0 483.254 483.254" width="512" xmlns="http://www.w3.org/2000/svg"><g><g id="icon_58_"><path d="m114.449 0h254.357c9.302 0 16.843 7.541 16.843 16.843v449.568c0 9.302-7.541 16.843-16.843 16.843h-254.357c-9.302 0-16.843-7.541-16.843-16.843v-449.568c0-9.302 7.541-16.843 16.843-16.843z" fill="#575b6d"/><path d="m115.574 44.919h252.106v369.831h-252.106z" fill="#69b0ee"/><g fill="#828a9e"><ellipse cx="241.627" cy="447.694" rx="17.22" ry="17.22" transform="matrix(.924 -.383 .383 .924 -152.932 126.545)"/><path d="m262.401 17.969h-41.548c-3.418 0-6.188 2.77-6.188 6.188s2.77 6.188 6.188 6.188h41.548c3.418 0 6.188-2.77 6.188-6.188s-2.77-6.188-6.188-6.188z"/></g></g></g></svg>