<svg height="362pt" viewBox="0 0 362 362.00089" width="362pt" xmlns="http://www.w3.org/2000/svg"><path d="m307 185c0 71.796875-58.203125 130-130 130s-130-58.203125-130-130 58.203125-130 130-130 130 58.203125 130 130zm0 0" fill="#e48e66"/><path d="m100.929688 284.921875-26.109376 35.429687-.25.339844-19.121093 25.949219-9.457031-54.589844zm0 0" fill="#6fe3ff"/><g fill="#63316d"><path d="m177 22c18.265625-.023438 36.40625 3.03125 53.65625 9.039062 2.363281.839844 5 .347657 6.902344-1.285156 1.902344-1.636718 2.785156-4.167968 2.3125-6.632812s-2.230469-4.488282-4.605469-5.300782c-18.730469-6.523437-38.429687-9.84375-58.265625-9.820312-97.597656 0-177 79.398438-177 177-.0273438 20.683594 3.582031 41.214844 10.664062 60.648438 1.324219 3.632812 5.34375 5.503906 8.976563 4.175781 3.632813-1.324219 5.5-5.34375 4.175781-8.976563-6.519531-17.894531-9.84375-36.800781-9.816406-55.847656 0-89.878906 73.121094-163 163-163zm0 0"/><path d="m233.460938 109.128906c0-3.863281-3.132813-7-7-7h-98.921876c-3.863281 0-7 3.136719-7 7 0 3.867188 3.136719 7 7 7h28.300782c16.871094.019532 31.398437 11.90625 34.753906 28.441406h-63.054688c-3.863281 0-7 3.132813-7 7 0 3.867188 3.136719 7 7 7h63.0625c-3.347656 16.542969-17.882812 28.441407-34.761718 28.449219h-28.300782c-2.867187 0-5.445312 1.75-6.503906 4.414063-1.058594 2.664062-.386718 5.707031 1.695313 7.675781l70.75 66.847656c2.8125 2.648438 7.234375 2.515625 9.886719-.289062 2.652343-2.804688 2.53125-7.230469-.269532-9.886719l-57.957031-54.761719h10.699219c24.605468-.003906 45.46875-18.09375 48.957031-42.449219h21.664063c3.867187 0 7-3.132812 7-7 0-3.867187-3.132813-7-7-7h-21.675782c-1.550781-10.828124-6.65625-20.832031-14.515625-28.441406h36.191407c3.867187 0 7-3.132812 7-7zm0 0"/><path d="m362 50.949219c0-3.863281-3.132812-7-7-7h-36.949219v-36.949219c0-3.867188-3.132812-7-7-7-3.867187 0-7 3.132812-7 7v36.949219h-39.050781c-3.867188 0-7 3.136719-7 7 0 3.867187 3.132812 7 7 7h39.050781v39.050781c0 3.867188 3.132813 7 7 7 3.867188 0 7-3.132812 7-7v-39.050781h36.949219c3.867188 0 7-3.132813 7-7zm0 0"/><path d="m48.554688 347.835938c.476562 2.761718 2.558593 4.972656 5.289062 5.617187 2.726562.644531 5.578125-.402344 7.242188-2.660156l15-20.355469c29.589843 20.65625 64.828124 31.675781 100.914062 31.5625 97.601562 0 177-79.398438 177-177 .046875-23.410156-4.585938-46.59375-13.621094-68.191406-1.515625-3.527344-5.589844-5.179688-9.132812-3.699219-3.542969 1.484375-5.230469 5.542969-3.785156 9.101563 8.320312 19.886718 12.582031 41.234374 12.539062 62.789062 0 89.878906-73.121094 163-163 163-33.09375.105469-65.421875-9.960938-92.605469-28.839844l22.171875-30.085937c1.664063-2.257813 1.820313-5.292969.394532-7.707031-1.421876-2.417969-4.148438-3.75-6.929688-3.390626l-54.941406 7.132813c-1.894532.242187-3.605469 1.25-4.738282 2.785156-1.132812 1.539063-1.585937 3.46875-1.261718 5.351563zm37.007812-53.863282-16.570312 22.492188v.007812l-9.4375 12.796875-5.410157-31.226562zm0 0"/></g></svg>