<svg height="512" viewBox="0 0 256 256" width="512" xmlns="http://www.w3.org/2000/svg"><path d="m139.687 60.569h99.553v166.434h-99.553z" fill="#63bce7"/><path d="m16.76 60.569h99.553v166.434h-99.553z" fill="#63bce7"/><path d="m16.76 60.569h15.5v166.434h-15.5z" fill="#6377e7"/><path d="m223.74 60.569h15.5v166.434h-15.5z" fill="#63e2e7"/><path d="m101.378 201.709v-115.845a10.6 10.6 0 0 1 -10.6-10.6h-48.484a10.6 10.6 0 0 1 -10.6 10.6v115.845a10.6 10.6 0 0 1 10.6 10.6h48.484a10.6 10.6 0 0 1 10.6-10.6z" fill="#f46275"/><circle cx="66.536" cy="143.787" fill="#f8af23" r="24.777"/><path d="m77.03 143.774v7.2a1.977 1.977 0 0 1 -.631 1.46 2.066 2.066 0 0 1 -1.5.619h-6.333v5.073a1.986 1.986 0 0 1 -.618 1.473 2.017 2.017 0 0 1 -1.46.606 2.074 2.074 0 0 1 -1.509-.606 1.985 1.985 0 0 1 -.619-1.473v-5.123h-6.288a2.015 2.015 0 0 1 -1.46-.606 1.985 1.985 0 0 1 -.619-1.473 2.07 2.07 0 0 1 2.079-2.079h14.7v-2.994h-14.65a2.025 2.025 0 0 1 -1.472-.594 1.991 1.991 0 0 1 -.607-1.485v-7.172a2.071 2.071 0 0 1 2.079-2.079h6.236v-5.073a2.053 2.053 0 0 1 2.153-2.079 1.977 1.977 0 0 1 1.448.606 2.006 2.006 0 0 1 .606 1.473v5.073h6.385a2.068 2.068 0 0 1 1.5.618 1.979 1.979 0 0 1 .631 1.46 2.156 2.156 0 0 1 -2.128 2.128h-14.703v2.97h14.65a2.068 2.068 0 0 1 1.5.619 1.978 1.978 0 0 1 .63 1.458z" fill="#3f3679"/><path d="m224.3 201.709v-115.845a10.6 10.6 0 0 1 -10.6-10.6h-48.478a10.6 10.6 0 0 1 -10.6 10.6v115.845a10.6 10.6 0 0 1 10.6 10.6h48.484a10.6 10.6 0 0 1 10.594-10.6z" fill="#f46275"/><circle cx="189.464" cy="143.787" fill="#f8af23" r="24.777"/><path d="m199.957 143.774v7.2a1.977 1.977 0 0 1 -.631 1.46 2.066 2.066 0 0 1 -1.5.619h-6.336v5.073a1.986 1.986 0 0 1 -.618 1.473 2.017 2.017 0 0 1 -1.46.606 2.074 2.074 0 0 1 -1.509-.606 1.985 1.985 0 0 1 -.619-1.473v-5.123h-6.284a2.015 2.015 0 0 1 -1.46-.606 1.985 1.985 0 0 1 -.619-1.473 2.07 2.07 0 0 1 2.079-2.076h14.7v-2.994h-14.651a2.025 2.025 0 0 1 -1.472-.594 1.991 1.991 0 0 1 -.607-1.485v-7.175a2.071 2.071 0 0 1 2.079-2.079h6.236v-5.073a2.053 2.053 0 0 1 2.153-2.079 1.977 1.977 0 0 1 1.448.606 2.006 2.006 0 0 1 .606 1.473v5.073h6.385a2.068 2.068 0 0 1 1.5.618 1.979 1.979 0 0 1 .631 1.46 2.156 2.156 0 0 1 -2.128 2.128h-14.7v2.97h14.651a2.068 2.068 0 0 1 1.5.619 1.978 1.978 0 0 1 .626 1.458z" fill="#3f3679"/><path d="m75.262 23.2h-30.502a.759.759 0 0 0 -.759.759v20.341a.759.759 0 0 0 .759.759h30.5a.759.759 0 0 1 .759.759v3.661a.759.759 0 0 0 1.3.537l15.345-15.348a.759.759 0 0 0 0-1.074l-15.347-15.347a.759.759 0 0 0 -1.3.537v3.661a.759.759 0 0 1 -.755.755z" fill="#f8af23"/><path d="m59.5 44.3v-20.337a.759.759 0 0 1 .759-.759h-15.499a.759.759 0 0 0 -.759.759v20.337a.759.759 0 0 0 .759.759h15.5a.759.759 0 0 1 -.76-.759z" fill="#f87023"/><path d="m182.645 23.2h30.5a.759.759 0 0 1 .759.759v20.341a.759.759 0 0 1 -.759.759h-30.5a.759.759 0 0 0 -.759.759v3.661a.759.759 0 0 1 -1.3.537l-15.343-15.348a.759.759 0 0 1 0-1.074l15.347-15.347a.759.759 0 0 1 1.3.537v3.661a.759.759 0 0 0 .755.755z" fill="#f46275"/><path d="m213.147 23.2h-15.5a.759.759 0 0 1 .759.759v20.341a.759.759 0 0 1 -.759.759h15.5a.759.759 0 0 0 .759-.759v-20.337a.759.759 0 0 0 -.759-.763z" fill="#f48875"/><g fill="#3f3679"><path d="m101.377 84.364a9.11 9.11 0 0 1 -9.1-9.1 1.5 1.5 0 0 0 -1.5-1.5h-48.483a1.5 1.5 0 0 0 -1.5 1.5 9.11 9.11 0 0 1 -9.1 9.1 1.5 1.5 0 0 0 -1.5 1.5v115.845a1.5 1.5 0 0 0 1.5 1.5 9.11 9.11 0 0 1 9.1 9.1 1.5 1.5 0 0 0 1.5 1.5h48.484a1.5 1.5 0 0 0 1.5-1.5 9.11 9.11 0 0 1 9.1-9.1 1.5 1.5 0 0 0 1.5-1.5v-115.845a1.5 1.5 0 0 0 -1.501-1.5zm-1.5 115.936a12.125 12.125 0 0 0 -10.507 10.507h-45.67a12.125 12.125 0 0 0 -10.5-10.507v-113.028a12.125 12.125 0 0 0 10.5-10.507h45.671a12.125 12.125 0 0 0 10.506 10.507z"/><path d="m66.537 117.51a26.277 26.277 0 1 0 26.277 26.277 26.307 26.307 0 0 0 -26.277-26.277zm0 49.554a23.277 23.277 0 1 1 23.277-23.277 23.3 23.3 0 0 1 -23.277 23.276z"/><path d="m224.3 84.364a9.11 9.11 0 0 1 -9.1-9.1 1.5 1.5 0 0 0 -1.5-1.5h-48.478a1.5 1.5 0 0 0 -1.5 1.5 9.11 9.11 0 0 1 -9.1 9.1 1.5 1.5 0 0 0 -1.5 1.5v115.845a1.5 1.5 0 0 0 1.5 1.5 9.11 9.11 0 0 1 9.1 9.1 1.5 1.5 0 0 0 1.5 1.5h48.484a1.5 1.5 0 0 0 1.5-1.5 9.11 9.11 0 0 1 9.1-9.1 1.5 1.5 0 0 0 1.5-1.5v-115.845a1.5 1.5 0 0 0 -1.506-1.5zm-1.5 115.936a12.125 12.125 0 0 0 -10.5 10.508h-45.671a12.125 12.125 0 0 0 -10.506-10.508v-113.028a12.125 12.125 0 0 0 10.507-10.507h45.67a12.125 12.125 0 0 0 10.5 10.507z"/><path d="m189.463 117.51a26.277 26.277 0 1 0 26.277 26.277 26.306 26.306 0 0 0 -26.277-26.277zm0 49.554a23.277 23.277 0 1 1 23.277-23.277 23.3 23.3 0 0 1 -23.277 23.276z"/><path d="m44.76 46.558h29.761v2.92a2.258 2.258 0 0 0 3.856 1.6l15.349-15.35a2.262 2.262 0 0 0 0-3.194l-15.349-15.347a2.259 2.259 0 0 0 -3.856 1.6v2.913h-29.761a2.262 2.262 0 0 0 -2.26 2.263v20.337a2.262 2.262 0 0 0 2.26 2.258zm.74-21.858h29.762a2.262 2.262 0 0 0 2.259-2.259v-1.869l13.559 13.559-13.559 13.558v-1.872a2.262 2.262 0 0 0 -2.259-2.259h-29.762z"/><path d="m179.529 51.075a2.259 2.259 0 0 0 3.856-1.6v-2.92h29.762a2.262 2.262 0 0 0 2.259-2.259v-20.333a2.262 2.262 0 0 0 -2.259-2.259h-29.761v-2.92a2.259 2.259 0 0 0 -3.856-1.6l-15.348 15.35a2.262 2.262 0 0 0 0 3.195zm.856-30.5v1.873a2.262 2.262 0 0 0 2.259 2.259h29.762v18.851h-29.761a2.262 2.262 0 0 0 -2.259 2.259v1.873l-13.559-13.559z"/><path d="m27.323 236.477h-18a1.5 1.5 0 1 0 0 3h18a1.5 1.5 0 0 0 0-3z"/><path d="m246.68 236.477h-18a1.5 1.5 0 0 0 0 3h18a1.5 1.5 0 1 0 0-3z"/><path d="m218.479 236.477h-180.958a1.5 1.5 0 0 0 0 3h180.958a1.5 1.5 0 0 0 0-3z"/><path d="m9.32 228.5h237.36a1.5 1.5 0 0 0 0-3h-5.94v-164.931a1.5 1.5 0 0 0 -1.5-1.5h-99.553a1.5 1.5 0 0 0 -1.5 1.5v164.931h-20.374v-164.931a1.5 1.5 0 0 0 -1.5-1.5h-99.553a1.5 1.5 0 0 0 -1.5 1.5v164.931h-5.94a1.5 1.5 0 1 0 0 3zm131.867-166.431h96.553v163.431h-96.553zm-122.927 0h96.553v163.431h-96.553z"/></g></svg>