<svg id="Layer_1" data-name="Layer 1" xmlns="http://www.w3.org/2000/svg" viewBox="0 0 512 512"><defs><style>.cls-1{fill:#f2496d;}.cls-2{opacity:0.3;}.cls-3{fill:#fff;}.cls-4{opacity:0.12;}.cls-5{fill:#2b374f;}</style></defs><title>blood-drops-filled</title><path class="cls-1" d="M279.46,365.41c0,60-40.27,110.77-95.4,126.9v.06a134.78,134.78,0,0,1-76,0v-.06C53,476.18,12.7,425.43,12.7,365.41c0-74.44,81.17-180.19,116.87-223.13v-.06c10.1-12.07,16.51-19.12,16.51-19.12s6.41,7.05,16.51,19.12v.06C198.29,185.22,279.46,291,279.46,365.41Z"/><g class="cls-2"><path class="cls-3" d="M129.57,142.28C93.87,185.22,12.7,291,12.7,365.41c0,60,40.27,110.77,95.4,126.9a171.81,171.81,0,0,1-44.59-115.6C63.51,324,94.57,230.57,129.57,142.28Z"/></g><g class="cls-4"><path d="M162.6,142.28c35,88.28,66.05,181.71,66.05,234.43a171.81,171.81,0,0,1-44.59,115.6c55.13-16.13,95.4-66.88,95.4-126.9C279.46,291,198.29,185.22,162.6,142.28Z"/></g><path class="cls-5" d="M146.08,510.54C65.53,510.54,0,445.42,0,365.39c0-99.13,131.1-244.68,136.68-250.83a13.11,13.11,0,0,1,18.81,0c5.58,6.15,136.68,151.7,136.68,250.83C292.17,445.42,226.63,510.54,146.08,510.54Zm0-368.09C116.19,177.56,25.41,290.38,25.41,365.39c0,66,54.14,119.74,120.68,119.74s120.68-53.72,120.68-119.74C266.76,290.38,176,177.56,146.08,142.45Z"/><path class="cls-1" d="M499.29,182.17c0,41.67-27.95,76.85-66.25,88.09a92.54,92.54,0,0,1-118.9-88.09c0-51.57,56.27-125,81-154.78,7-8.45,11.5-13.4,11.5-13.4s4.57,5,11.62,13.53C443.14,57.43,499.29,130.66,499.29,182.17Z"/><g class="cls-2"><path class="cls-3" d="M395.19,27.38c-24.77,29.79-81,103.21-81,154.78a91.93,91.93,0,0,0,66.18,88.09A119.2,119.2,0,0,1,349.39,190C349.39,153.46,370.92,88.61,395.19,27.38Z"/></g><g class="cls-4"><path d="M418.3,27.51C442.57,88.68,464,153.46,464,190a119,119,0,0,1-31,80.22c38.3-11.24,66.25-46.43,66.25-88.09C499.29,130.66,443.14,57.43,418.3,27.51Z"/></g><path class="cls-5" d="M406.71,286.8c-58.06,0-105.29-46.94-105.29-104.64,0-70.29,92-172.41,95.88-176.72a13.11,13.11,0,0,1,18.81,0C420,9.75,512,111.87,512,182.16,512,239.86,464.77,286.8,406.71,286.8Zm0-253.49C378,67.41,326.83,137.42,326.83,182.16c0,43.69,35.84,79.23,79.88,79.23s79.89-35.54,79.89-79.23C486.59,137.37,435.44,67.39,406.71,33.31Z"/></svg>